<svg xmlns="http://www.w3.org/2000/svg" viewBox="0 0 1000 600" role="img" aria-label="Expo City Dubai Logo">
  <defs>
    <radialGradient id="goldGradient" cx="40%" cy="40%" r="60%">
      <stop offset="0%" stop-color="#FFD54F" />
      <stop offset="70%" stop-color="#FB8C00" />
      <stop offset="100%" stop-color="#E65100" />
    </radialGradient>

    <path id="droplet" d="M 0,-10 
                         C 6,-10 10,-5 10,2 
                         C 10,8 4,12 0,18 
                         C -4,12 -10,8 -10,2 
                         C -10,-5 -6,-10 0,-10 Z" 
          fill="url(#goldGradient)" />
  </defs>

  <rect width="1000" height="600" fill="white" />

  <g transform="translate(300, 300)">
    
    <g id="outer-ring">
      <g transform="rotate(0) translate(0, -145) scale(1.6)"><use href="#droplet"/></g>
      <g transform="rotate(15) translate(0, -145) scale(1.6)"><use href="#droplet"/></g>
      <g transform="rotate(30) translate(0, -145) scale(1.6)"><use href="#droplet"/></g>
      <g transform="rotate(45) translate(0, -145) scale(1.6)"><use href="#droplet"/></g>
      <g transform="rotate(60) translate(0, -145) scale(1.6)"><use href="#droplet"/></g>
      <g transform="rotate(75) translate(0, -145) scale(1.6)"><use href="#droplet"/></g>
      <g transform="rotate(90) translate(0, -145) scale(1.6)"><use href="#droplet"/></g>
      <g transform="rotate(105) translate(0, -145) scale(1.6)"><use href="#droplet"/></g>
      <g transform="rotate(120) translate(0, -145) scale(1.6)"><use href="#droplet"/></g>
      <g transform="rotate(135) translate(0, -145) scale(1.6)"><use href="#droplet"/></g>
      <g transform="rotate(150) translate(0, -145) scale(1.6)"><use href="#droplet"/></g>
      <g transform="rotate(165) translate(0, -145) scale(1.6)"><use href="#droplet"/></g>
      <g transform="rotate(180) translate(0, -145) scale(1.6)"><use href="#droplet"/></g>
      <g transform="rotate(195) translate(0, -145) scale(1.6)"><use href="#droplet"/></g>
      <g transform="rotate(210) translate(0, -145) scale(1.6)"><use href="#droplet"/></g>
      <g transform="rotate(225) translate(0, -145) scale(1.6)"><use href="#droplet"/></g>
      <g transform="rotate(240) translate(0, -145) scale(1.6)"><use href="#droplet"/></g>
      <g transform="rotate(255) translate(0, -145) scale(1.6)"><use href="#droplet"/></g>
      <g transform="rotate(270) translate(0, -145) scale(1.6)"><use href="#droplet"/></g>
      <g transform="rotate(285) translate(0, -145) scale(1.6)"><use href="#droplet"/></g>
      <g transform="rotate(300) translate(0, -145) scale(1.6)"><use href="#droplet"/></g>
      <g transform="rotate(315) translate(0, -145) scale(1.6)"><use href="#droplet"/></g>
      <g transform="rotate(330) translate(0, -145) scale(1.6)"><use href="#droplet"/></g>
      <g transform="rotate(345) translate(0, -145) scale(1.6)"><use href="#droplet"/></g>
    </g>

    <g id="middle-ring">
      <g transform="rotate(0) translate(0, -100) scale(1.1)"><use href="#droplet"/></g>
      <g transform="rotate(20) translate(0, -100) scale(1.1)"><use href="#droplet"/></g>
      <g transform="rotate(40) translate(0, -100) scale(1.1)"><use href="#droplet"/></g>
      <g transform="rotate(60) translate(0, -100) scale(1.1)"><use href="#droplet"/></g>
      <g transform="rotate(80) translate(0, -100) scale(1.1)"><use href="#droplet"/></g>
      <g transform="rotate(100) translate(0, -100) scale(1.1)"><use href="#droplet"/></g>
      <g transform="rotate(120) translate(0, -100) scale(1.1)"><use href="#droplet"/></g>
      <g transform="rotate(140) translate(0, -100) scale(1.1)"><use href="#droplet"/></g>
      <g transform="rotate(160) translate(0, -100) scale(1.1)"><use href="#droplet"/></g>
      <g transform="rotate(180) translate(0, -100) scale(1.1)"><use href="#droplet"/></g>
      <g transform="rotate(200) translate(0, -100) scale(1.1)"><use href="#droplet"/></g>
      <g transform="rotate(220) translate(0, -100) scale(1.1)"><use href="#droplet"/></g>
      <g transform="rotate(240) translate(0, -100) scale(1.1)"><use href="#droplet"/></g>
      <g transform="rotate(260) translate(0, -100) scale(1.1)"><use href="#droplet"/></g>
      <g transform="rotate(280) translate(0, -100) scale(1.1)"><use href="#droplet"/></g>
      <g transform="rotate(300) translate(0, -100) scale(1.1)"><use href="#droplet"/></g>
      <g transform="rotate(320) translate(0, -100) scale(1.1)"><use href="#droplet"/></g>
      <g transform="rotate(340) translate(0, -100) scale(1.1)"><use href="#droplet"/></g>
    </g>

    <g id="inner-ring">
      <g transform="rotate(10) translate(0, -65) scale(0.6)"><use href="#droplet"/></g>
      <g transform="rotate(40) translate(0, -65) scale(0.6)"><use href="#droplet"/></g>
      <g transform="rotate(70) translate(0, -65) scale(0.6)"><use href="#droplet"/></g>
      <g transform="rotate(100) translate(0, -65) scale(0.6)"><use href="#droplet"/></g>
      <g transform="rotate(130) translate(0, -65) scale(0.6)"><use href="#droplet"/></g>
      <g transform="rotate(160) translate(0, -65) scale(0.6)"><use href="#droplet"/></g>
      <g transform="rotate(190) translate(0, -65) scale(0.6)"><use href="#droplet"/></g>
      <g transform="rotate(220) translate(0, -65) scale(0.6)"><use href="#droplet"/></g>
      <g transform="rotate(250) translate(0, -65) scale(0.6)"><use href="#droplet"/></g>
      <g transform="rotate(280) translate(0, -65) scale(0.6)"><use href="#droplet"/></g>
      <g transform="rotate(310) translate(0, -65) scale(0.6)"><use href="#droplet"/></g>
      <g transform="rotate(340) translate(0, -65) scale(0.6)"><use href="#droplet"/></g>
    </g>
  </g>

  <g transform="translate(580, 270)">
    <text font-family="Segoe UI, Helvetica, Arial, sans-serif" font-size="38" fill="#333">مدينة إكسبو دبي</text>
    <text font-family="Segoe UI, Helvetica, Arial, sans-serif" font-size="52" font-weight="800" y="70" letter-spacing="1" fill="#111">EXPO CITY DUBAI</text>
  </g>
</svg>
