<svg xmlns="http://www.w3.org/2000/svg" viewBox="0 0 800 800">
  <defs>
    <radialGradient id="gold" cx="35%" cy="30%" r="65%">
      <stop offset="0%" stop-color="#FFD147" />
      <stop offset="50%" stop-color="#F9A01B" />
      <stop offset="100%" stop-color="#C77800" />
    </radialGradient>

    <path id="bead" d="M 0,-15 
                       C 10,-15 15,-8 15,2 
                       C 15,12 8,18 0,25 
                       C -8,18 -15,12 -15,2 
                       C -15,-8 -10,-15 0,-15 Z" 
          fill="url(#gold)" />
  </defs>

  <rect width="800" height="800" fill="white" />

  <g transform="translate(400,400)">
    
    <g id="ring1">
      <g transform="rotate(0) translate(0,-185) scale(1.4)"><use href="#bead"/></g>
      <g transform="rotate(15) translate(0,-185) scale(1.4)"><use href="#bead"/></g>
      <g transform="rotate(30) translate(0,-185) scale(1.4)"><use href="#bead"/></g>
      <g transform="rotate(45) translate(0,-185) scale(1.4)"><use href="#bead"/></g>
      <g transform="rotate(60) translate(0,-185) scale(1.4)"><use href="#bead"/></g>
      <g transform="rotate(75) translate(0,-185) scale(1.4)"><use href="#bead"/></g>
      <g transform="rotate(90) translate(0,-185) scale(1.4)"><use href="#bead"/></g>
      <g transform="rotate(105) translate(0,-185) scale(1.4)"><use href="#bead"/></g>
      <g transform="rotate(120) translate(0,-185) scale(1.4)"><use href="#bead"/></g>
      <g transform="rotate(135) translate(0,-185) scale(1.4)"><use href="#bead"/></g>
      <g transform="rotate(150) translate(0,-185) scale(1.4)"><use href="#bead"/></g>
      <g transform="rotate(165) translate(0,-185) scale(1.4)"><use href="#bead"/></g>
      <g transform="rotate(180) translate(0,-185) scale(1.4)"><use href="#bead"/></g>
      <g transform="rotate(195) translate(0,-185) scale(1.4)"><use href="#bead"/></g>
      <g transform="rotate(210) translate(0,-185) scale(1.4)"><use href="#bead"/></g>
      <g transform="rotate(225) translate(0,-185) scale(1.4)"><use href="#bead"/></g>
      <g transform="rotate(240) translate(0,-185) scale(1.4)"><use href="#bead"/></g>
      <g transform="rotate(255) translate(0,-185) scale(1.4)"><use href="#bead"/></g>
      <g transform="rotate(270) translate(0,-185) scale(1.4)"><use href="#bead"/></g>
      <g transform="rotate(285) translate(0,-185) scale(1.4)"><use href="#bead"/></g>
      <g transform="rotate(300) translate(0,-185) scale(1.4)"><use href="#bead"/></g>
      <g transform="rotate(315) translate(0,-185) scale(1.4)"><use href="#bead"/></g>
      <g transform="rotate(330) translate(0,-185) scale(1.4)"><use href="#bead"/></g>
      <g transform="rotate(345) translate(0,-185) scale(1.4)"><use href="#bead"/></g>
    </g>

    <g id="ring2">
      <g transform="rotate(0) translate(0,-130) scale(1.1)"><use href="#bead"/></g>
      <g transform="rotate(20) translate(0,-130) scale(1.1)"><use href="#bead"/></g>
      <g transform="rotate(40) translate(0,-130) scale(1.1)"><use href="#bead"/></g>
      <g transform="rotate(60) translate(0,-130) scale(1.1)"><use href="#bead"/></g>
      <g transform="rotate(80) translate(0,-130) scale(1.1)"><use href="#bead"/></g>
      <g transform="rotate(100) translate(0,-130) scale(1.1)"><use href="#bead"/></g>
      <g transform="rotate(120) translate(0,-130) scale(1.1)"><use href="#bead"/></g>
      <g transform="rotate(140) translate(0,-130) scale(1.1)"><use href="#bead"/></g>
      <g transform="rotate(160) translate(0,-130) scale(1.1)"><use href="#bead"/></g>
      <g transform="rotate(180) translate(0,-130) scale(1.1)"><use href="#bead"/></g>
      <g transform="rotate(200) translate(0,-130) scale(1.1)"><use href="#bead"/></g>
      <g transform="rotate(220) translate(0,-130) scale(1.1)"><use href="#bead"/></g>
      <g transform="rotate(240) translate(0,-130) scale(1.1)"><use href="#bead"/></g>
      <g transform="rotate(260) translate(0,-130) scale(1.1)"><use href="#bead"/></g>
      <g transform="rotate(280) translate(0,-130) scale(1.1)"><use href="#bead"/></g>
      <g transform="rotate(300) translate(0,-130) scale(1.1)"><use href="#bead"/></g>
      <g transform="rotate(320) translate(0,-130) scale(1.1)"><use href="#bead"/></g>
      <g transform="rotate(340) translate(0,-130) scale(1.1)"><use href="#bead"/></g>
    </g>

    <g id="ring3">
      <g transform="rotate(10) translate(0,-90) scale(0.65)"><use href="#bead"/></g>
      <g transform="rotate(40) translate(0,-90) scale(0.65)"><use href="#bead"/></g>
      <g transform="rotate(70) translate(0,-90) scale(0.65)"><use href="#bead"/></g>
      <g transform="rotate(100) translate(0,-90) scale(0.65)"><use href="#bead"/></g>
      <g transform="rotate(130) translate(0,-90) scale(0.65)"><use href="#bead"/></g>
      <g transform="rotate(160) translate(0,-90) scale(0.65)"><use href="#bead"/></g>
      <g transform="rotate(190) translate(0,-90) scale(0.65)"><use href="#bead"/></g>
      <g transform="rotate(220) translate(0,-90) scale(0.65)"><use href="#bead"/></g>
      <g transform="rotate(250) translate(0,-90) scale(0.65)"><use href="#bead"/></g>
      <g transform="rotate(280) translate(0,-90) scale(0.65)"><use href="#bead"/></g>
      <g transform="rotate(310) translate(0,-90) scale(0.65)"><use href="#bead"/></g>
      <g transform="rotate(340) translate(0,-90) scale(0.65)"><use href="#bead"/></g>
    </g>
  </g>
</svg>
